# xmcd
#
# Track frame offsets:
#	150
#	12277
#	24375
#	37542
#	48767
#	60647
#	78012
#	95185
#	106995
#	121637
#	133137
#	143957
#	157320
#	170920
#
# Disc length: 2535 seconds
#
# Revision: 1
# Processed by: cddbd v1.4PL0 Copyright (c) Steve Scherf et al.
# Submitted via: audiograbber 1.82.02
#
DISCID=b109e50e
DTITLE=George Morgan - The Late, Great George Morgan 14 Greatest Hits
DYEAR=1995
DGENRE=Country
TTITLE0=Candy Kisses
TTITLE1=You're The Only Good Thing (That's Happened To Me)
TTITLE2=Almost
TTITLE3=Hello Darlin'
TTITLE4=Please Don't Let Me Love You
TTITLE5=Precious Memories
TTITLE6=He'll Understand And Say Well Done
TTITLE7=I'm In Love Again
TTITLE8=Sounds Of Goodbye
TTITLE9=Room Full Of Roses
TTITLE10=This Cold War With You
TTITLE11=Lilacs And Fire
TTITLE12=Softly And Tenderly
TTITLE13=Beyond The Sunset
EXTD=PowePlay PCD-6100-2
EXTT0=
EXTT1=
EXTT2=
EXTT3=
EXTT4=
EXTT5=
EXTT6=
EXTT7=
EXTT8=
EXTT9=
EXTT10=
EXTT11=
EXTT12=
EXTT13=
PLAYORDER=
